<svg width="28" height="28" viewBox="0 0 28 28" fill="none" xmlns="http://www.w3.org/2000/svg">
<path fill-rule="evenodd" clip-rule="evenodd" d="M28 14C28 21.732 21.732 28 14 28C6.26801 28 0 21.732 0 14C0 6.26801 6.26801 0 14 0C21.732 0 28 6.26801 28 14ZM18.1921 3.67477C18.1921 3.67477 18.4563 5.42495 16.975 6.64994C16.6849 6.88982 15.9564 6.94576 15.1866 7.00486C14.2862 7.07401 13.3293 7.14748 12.952 7.52477C12.5369 7.93985 12.5579 8.73336 12.5856 9.77776C12.593 10.0594 12.6009 10.3592 12.6009 10.6748C12.6009 11.7819 11.8598 11.749 11.1384 11.7169C10.5825 11.6922 10.0384 11.668 9.85401 12.1662C9.65273 12.71 9.80005 13.6499 9.80005 13.6499C9.83717 14.3168 11.718 14.1573 13.6537 13.9931C15.6297 13.8255 17.6628 13.6531 17.85 14.3499C18.0231 14.7001 18.1586 15.1276 18.2001 15.5749C18.2216 15.8076 18.2406 16.0361 18.2592 16.2589C18.4242 18.244 18.5514 19.7748 20.127 19.7748C21.7479 19.7748 21.817 20.4407 21.8716 20.967L21.8751 20.9999C21.8987 21.225 22.0155 21.7692 22.2699 21.5248C24.2925 19.5823 25.5513 16.8505 25.5513 13.8248C25.5513 9.18489 22.5911 5.23641 18.4563 3.76487C18.3687 3.73372 18.1921 3.67477 18.1921 3.67477ZM12.6 25.0249V22.3999C11.2 22.575 10.4881 21.9474 10.15 21.35C9.64048 20.4495 9.80005 18.0249 9.80005 18.0249L8.92505 17.3249L6.12505 14.5249L4.90005 13.2999C3.85005 12.2499 3.10501 11.7848 3.10501 11.7848C3.10501 11.7848 2.80005 13.4662 2.80005 14.3498C2.80005 19.9879 7.10043 24.6215 12.6 25.1496C12.6409 25.1536 12.6 25.0249 12.6 25.0249Z" fill="white"/>
</svg>
