<svg width="28" height="28" viewBox="0 0 28 28" fill="none" xmlns="http://www.w3.org/2000/svg">
<path d="M8.16484 0C3.663 0 0 3.66516 0 8.16813V19.8341C0 24.3365 3.66516 28 8.16813 28H19.8341C24.3365 28 28 24.3348 28 19.8319V8.16484C28 3.663 24.3348 0 19.8319 0H8.16484ZM22.4 4.48C23.0182 4.48 23.52 4.98176 23.52 5.6C23.52 6.21824 23.0182 6.72 22.4 6.72C21.7818 6.72 21.28 6.21824 21.28 5.6C21.28 4.98176 21.7818 4.48 22.4 4.48ZM14 6.72C18.0152 6.72 21.28 9.9848 21.28 14C21.28 18.0152 18.0146 21.28 14 21.28C9.9848 21.28 6.72 18.0146 6.72 14C6.72 9.98536 9.9848 6.72 14 6.72ZM14 8.96C11.2162 8.96 8.96 11.2162 8.96 14C8.96 16.7838 11.2162 19.04 14 19.04C16.7838 19.04 19.04 16.7838 19.04 14C19.04 11.2162 16.7838 8.96 14 8.96Z" fill="white"/>
</svg>
